<svg xmlns="http://www.w3.org/2000/svg" xmlns:xlink="http://www.w3.org/1999/xlink" width="500" zoomAndPan="magnify" viewBox="0 0 375 374.999991" height="500" preserveAspectRatio="xMidYMid meet" version="1.0"><defs><g/><clipPath id="827df0b5c1"><path d="M 33.960938 56.382812 L 246.960938 56.382812 L 246.960938 317.910156 L 33.960938 317.910156 Z M 33.960938 56.382812 " clip-rule="nonzero"/></clipPath><clipPath id="345b0d332a"><path d="M 58.351562 246.914062 L 107.695312 246.914062 L 107.695312 325.117188 L 58.351562 325.117188 Z M 58.351562 246.914062 " clip-rule="nonzero"/></clipPath><clipPath id="18b05a6026"><path d="M 236.105469 139.175781 L 356.105469 139.175781 L 356.105469 301 L 236.105469 301 Z M 236.105469 139.175781 " clip-rule="nonzero"/></clipPath></defs><g clip-path="url(#827df0b5c1)"><path fill="#2d2e32" d="M 33.953125 220.761719 L 101.023438 220.761719 L 101.023438 123.515625 L 159.9375 123.515625 C 165.316406 123.515625 170.367188 125.613281 174.167969 129.417969 C 177.964844 133.222656 180.054688 138.277344 180.046875 143.652344 L 179.910156 231.492188 C 179.894531 242.183594 171.183594 250.878906 160.492188 250.878906 L 103.105469 250.878906 L 58.382812 317.902344 L 160.492188 317.902344 C 208.085938 317.902344 246.863281 279.183594 246.933594 231.59375 L 247.066406 143.753906 C 247.101562 120.457031 238.054688 98.546875 221.59375 82.0625 C 205.128906 65.574219 183.234375 56.496094 159.9375 56.496094 L 33.953125 56.402344 Z M 33.953125 220.761719 " fill-opacity="1" fill-rule="nonzero"/></g><g clip-path="url(#345b0d332a)"><path fill="#ffffff" d="M 58.351562 246.914062 L 107.695312 246.914062 L 107.695312 325.164062 L 58.351562 325.164062 Z M 58.351562 246.914062 " fill-opacity="1" fill-rule="nonzero"/></g><g clip-path="url(#18b05a6026)"><path fill="#2d2e32" d="M 296.085938 139.195312 C 263.011719 139.195312 236.105469 166.101562 236.105469 199.175781 C 236.105469 231.453125 291.730469 297.1875 294.101562 299.972656 C 294.597656 300.550781 295.320312 300.886719 296.085938 300.886719 C 296.851562 300.886719 297.578125 300.550781 298.070312 299.972656 C 300.441406 297.1875 356.070312 231.453125 356.070312 199.175781 C 356.070312 166.101562 329.160156 139.195312 296.085938 139.195312 Z M 296.085938 294.203125 C 286.03125 282.019531 241.320312 226.277344 241.320312 199.175781 C 241.320312 168.976562 265.886719 144.410156 296.085938 144.410156 C 326.285156 144.410156 350.851562 168.976562 350.851562 199.175781 C 350.851562 226.265625 306.140625 282.015625 296.085938 294.203125 Z M 296.085938 294.203125 " fill-opacity="1" fill-rule="nonzero"/></g><path fill="#2d2e32" d="M 296.085938 152.5625 C 270.203125 152.5625 249.144531 173.621094 249.144531 199.503906 C 249.144531 225.386719 270.203125 246.445312 296.085938 246.445312 C 321.96875 246.445312 343.03125 225.386719 343.03125 199.503906 C 343.03125 173.621094 321.96875 152.5625 296.085938 152.5625 Z M 296.085938 241.230469 C 273.078125 241.230469 254.359375 222.511719 254.359375 199.503906 C 254.359375 176.496094 273.078125 157.777344 296.085938 157.777344 C 319.09375 157.777344 337.8125 176.496094 337.8125 199.503906 C 337.8125 222.511719 319.09375 241.230469 296.085938 241.230469 Z M 296.085938 241.230469 " fill-opacity="1" fill-rule="nonzero"/><path fill="#2d2e32" d="M 324.773438 186.136719 L 277.832031 186.136719 L 277.832031 178.3125 C 277.832031 176.875 276.664062 175.707031 275.222656 175.707031 L 267.398438 175.707031 C 265.957031 175.707031 264.792969 176.875 264.792969 178.3125 L 264.792969 217.433594 C 264.792969 218.875 265.957031 220.042969 267.398438 220.042969 L 275.222656 220.042969 C 276.664062 220.042969 277.832031 218.875 277.832031 217.433594 L 277.832031 209.609375 L 314.34375 209.609375 L 314.34375 217.433594 C 314.34375 218.875 315.507812 220.042969 316.949219 220.042969 L 324.773438 220.042969 C 326.214844 220.042969 327.382812 218.875 327.382812 217.433594 L 327.382812 188.746094 C 327.382812 187.304688 326.214844 186.136719 324.773438 186.136719 Z M 322.164062 214.824219 L 319.558594 214.824219 L 319.558594 207 C 319.558594 205.5625 318.390625 204.394531 316.949219 204.394531 L 275.222656 204.394531 C 273.78125 204.394531 272.613281 205.5625 272.613281 207 L 272.613281 214.824219 L 270.007812 214.824219 L 270.007812 180.921875 L 272.613281 180.921875 L 272.613281 199.175781 C 272.613281 200.617188 273.78125 201.785156 275.222656 201.785156 L 322.164062 201.785156 Z M 322.164062 196.570312 L 277.832031 196.570312 L 277.832031 191.355469 L 322.164062 191.355469 Z M 322.164062 196.570312 " fill-opacity="1" fill-rule="nonzero"/><g fill="#24ab70" fill-opacity="1"><g transform="translate(-49.690749, 301.727731)"><g><path d="M 75.171875 -27.75 C 75.171875 -36.882812 77.921875 -44.203125 83.421875 -49.703125 C 88.921875 -55.203125 96.238281 -57.953125 105.375 -57.953125 C 114.507812 -57.953125 121.828125 -55.203125 127.328125 -49.703125 C 132.828125 -44.203125 135.578125 -36.882812 135.578125 -27.75 C 135.578125 -18.382812 132.828125 -10.832031 127.328125 -5.09375 C 121.828125 0.644531 114.507812 3.515625 105.375 3.515625 C 96.238281 3.515625 88.921875 0.644531 83.421875 -5.09375 C 77.921875 -10.832031 75.171875 -18.382812 75.171875 -27.75 Z M 75.171875 -27.75 "/></g></g></g></svg>